<?xml version="1.0" encoding="UTF-8" standalone="no"?>
<!-- Created with Inkscape (http://www.inkscape.org/) -->

<svg
   width="1340"
   height="510"
   viewBox="0 0 1340 510"
   id="svg4434"
   version="1.1"
   inkscape:version="1.2 (dc2aedaf03, 2022-05-15)"
   sodipodi:docname="Me and She.svg"
   inkscape:export-filename="..\pages\images\projects\other\pic_me_and_she.jpg"
   inkscape:export-xdpi="128.95523"
   inkscape:export-ydpi="128.95523"
   xml:space="preserve"
   xmlns:inkscape="http://www.inkscape.org/namespaces/inkscape"
   xmlns:sodipodi="http://sodipodi.sourceforge.net/DTD/sodipodi-0.dtd"
   xmlns="http://www.w3.org/2000/svg"
   xmlns:svg="http://www.w3.org/2000/svg"
   xmlns:rdf="http://www.w3.org/1999/02/22-rdf-syntax-ns#"
   xmlns:cc="http://creativecommons.org/ns#"
   xmlns:dc="http://purl.org/dc/elements/1.1/"><defs
     id="defs4436" /><sodipodi:namedview
     id="base"
     pagecolor="#ffffff"
     bordercolor="#666666"
     borderopacity="1.0"
     inkscape:pageopacity="0.0"
     inkscape:pageshadow="2"
     inkscape:zoom="0.96250953"
     inkscape:cx="517.39747"
     inkscape:cy="348.0485"
     inkscape:document-units="px"
     inkscape:current-layer="layer1"
     showgrid="false"
     inkscape:snap-global="true"
     inkscape:window-width="1920"
     inkscape:window-height="1017"
     inkscape:window-x="-8"
     inkscape:window-y="-8"
     inkscape:window-maximized="1"
     inkscape:snap-bbox="true"
     inkscape:bbox-paths="true"
     inkscape:bbox-nodes="true"
     inkscape:snap-bbox-edge-midpoints="true"
     inkscape:snap-bbox-midpoints="true"
     inkscape:object-paths="true"
     inkscape:snap-intersection-paths="true"
     inkscape:object-nodes="true"
     inkscape:snap-smooth-nodes="true"
     inkscape:snap-midpoints="true"
     inkscape:snap-object-midpoints="true"
     inkscape:snap-center="true"
     inkscape:snap-page="true"
     inkscape:snap-text-baseline="true"
     units="px"
     inkscape:showpageshadow="2"
     inkscape:pagecheckerboard="0"
     inkscape:deskcolor="#d1d1d1" /><metadata
     id="metadata4439"><rdf:RDF><cc:Work
         rdf:about=""><dc:format>image/svg+xml</dc:format><dc:type
           rdf:resource="http://purl.org/dc/dcmitype/StillImage" /></cc:Work></rdf:RDF></metadata><g
     inkscape:label="Layer 1"
     inkscape:groupmode="layer"
     id="layer1"
     transform="translate(0,-542.36219)"><path
       style="fill:#000000;fill-opacity:0.988235;stroke:none;stroke-width:6;stroke-linecap:butt;stroke-linejoin:round;stroke-miterlimit:4;stroke-dasharray:none;stroke-opacity:1"
       d="m 670,542.36221 h 670 V 1052.3622 H 670 Z"
       id="path122960"
       inkscape:connector-curvature="0"
       sodipodi:nodetypes="ccccc" /><path
       style="fill:#ffffff;fill-opacity:0.988235;stroke:none;stroke-width:6;stroke-linecap:butt;stroke-linejoin:round;stroke-miterlimit:4;stroke-dasharray:none;stroke-opacity:1"
       d="M 0,542.36221 H 670 V 1052.3622 H 0 Z"
       id="rect4422-6"
       inkscape:connector-curvature="0"
       sodipodi:nodetypes="ccccc" /><g
       id="g123414"><path
         style="font-style:normal;font-weight:normal;font-size:8.16517px;line-height:125%;font-family:Sans;-inkscape-font-specification:Sans;letter-spacing:0px;word-spacing:0px;fill:#ff7800;fill-opacity:1;stroke:none;stroke-width:1.42308"
         d="m 143.4401,932.4547 c 86.62666,-13.99071 163.60427,-21.3854 262.6712,-21.4952 34.61517,-0.027 71.92673,0.81251 113.2899,2.5821 0,0 -43.65367,-12.15241 -51.96811,-22.9564 0,0 -56.18628,-0.2085 -163.08584,12.1212 -106.89956,12.32869 -160.90715,29.7483 -160.90715,29.7483 z"
         id="path122957" /><path
         style="font-style:normal;font-weight:normal;font-size:8.16517px;line-height:125%;font-family:Sans;-inkscape-font-specification:Sans;letter-spacing:0px;word-spacing:0px;fill:#ff7800;fill-opacity:1;stroke:none;stroke-width:1.42308"
         d="m 206.91562,705.60185 c 8.28001,10.02974 29.65206,37.42528 30.5621,53.95182 1.11519,20.5006 -15.48459,66.84799 -30.39502,78.11873 -11.57799,8.75722 -37.89691,16.96521 -49.40893,20.29424 l -4.94445,1.38215 -0.84917,0.3431 c 0,0 -2.10909,7.763 2.63626,16.85612 3.03321,5.78729 7.23587,11.4053 16.59225,12.21838 1.26746,23.04252 -23.07912,39.62072 -23.07912,39.62072 0,0 65.97746,-20.33741 144.67619,-31.51511 78.69874,-11.17741 171.18886,-19.38079 171.18886,-19.38079 h -10e-4 c 0,0 -0.26624,-5.8724 -0.20368,-8.99241 0.27886,-15.75302 3.40807,-33.36371 3.40807,-33.6171 10.29939,-2.90032 21.47341,-6.46358 31.70686,-10.57072 29.51893,-11.74361 27.73429,-26.08615 27.73429,-26.08615 0,0 -24.03234,-15.48169 -61.15597,-29.44739 -37.12631,-14.00064 -32.78275,-42.97886 -78.89516,-73.7097 -46.11119,-30.73741 -56.54492,-14.44073 -104.54094,-20.02848 -44.36097,-5.12969 -41.16579,-11.04088 -52.20522,-12.65581 -11.03945,-1.64498 -22.81798,14.94702 -25.47703,24.23698 -2.62632,9.15583 -0.83655,14.67132 -0.77327,14.8059 z"
         id="path123409" /><path
         id="path3454-9-1"
         style="font-style:normal;font-weight:normal;font-size:8.16517px;line-height:125%;font-family:Sans;-inkscape-font-specification:Sans;letter-spacing:0px;word-spacing:0px;fill:#000000;fill-opacity:1;stroke:none;stroke-width:1.42308"
         d="m 203.02575,703.68601 c -0.17702,0 -1.10281,1.02157 -5.78972,7.57366 -5.21578,7.272 -8.75069,21.37155 -8.75069,21.37155 0,0 3.8734,-8.41068 9.72519,-16.12207 3.93792,-5.13503 7.87726,-8.3838 8.2473,-8.64762 M 158.8042,856.38469 c -0.51965,-2.5732 -1.21678,-6.35907 -1.68573,-10.79818 -1.37513,-12.21813 -0.40567,-23.33129 -0.40567,-23.33129 0,0 -4.57927,16.05637 -3.63236,27.30434 0.40568,4.53877 0.621,6.46068 0.77302,8.20728 M 356.16063,701.59559 c -10.77075,-0.83778 -26.08659,-1.73157 -35.77882,-1.22697 -9.35759,0.5172 -11.2082,-2.7507 -18.6468,-5.4214 -7.40319,-2.63139 -20.39584,-4.75722 -20.39584,-4.75722 0,0 9.79357,-2.87146 15.95455,-2.42435 6.15879,0.51698 4.64668,-1.02035 20.12739,5.8894 9.69343,4.37801 27.06139,6.76837 38.73952,7.97399 z m -149.24501,4.00626 c 8.28001,10.02974 29.65206,37.42528 30.5621,53.95182 1.11519,20.5006 -15.48459,66.84799 -30.39502,78.11873 -11.57799,8.75722 -37.89691,16.96521 -49.40893,20.29424 l -4.94445,1.38215 -0.84917,0.3431 c 0,0 -2.10909,7.763 2.63626,16.85612 3.03321,5.78729 7.23587,11.4053 16.59225,12.21838 1.26746,23.04252 -23.07912,39.62072 -23.07912,39.62072 0,0 65.97746,-20.33741 144.67619,-31.51511 78.69874,-11.17741 171.18886,-19.38079 171.18886,-19.38079 h -10e-4 c 0,0 -0.26624,-5.8724 -0.20368,-8.99241 0.27886,-15.75302 3.40807,-33.36371 3.40807,-33.6171 10.29939,-2.90032 21.47341,-6.46358 31.70686,-10.57072 29.51893,-11.74361 27.73429,-26.08615 27.73429,-26.08615 0,0 -24.03234,-15.48169 -61.15597,-29.44739 -37.12631,-14.00064 -32.78275,-42.97886 -78.89516,-73.7097 -46.11119,-30.73741 -56.54492,-14.44073 -104.54094,-20.02848 -44.36097,-5.12969 -41.16579,-11.04088 -52.20522,-12.65581 -11.03945,-1.64498 -22.81798,14.94702 -25.47703,24.23698 -2.62632,9.15583 -0.83655,14.67132 -0.77327,14.8059 z" /></g><g
       transform="translate(530.3401,137.59745)"
       id="g4183"><path
         sodipodi:nodetypes="csc"
         inkscape:connector-curvature="0"
         id="path5352-8-4-5"
         d="m 590.06713,751.62195 c 0,0 3.88794,-0.6522 5.31376,1.3788 0.29277,0.4171 0.51517,0.988 0.55001,1.6187"
         style="fill:none;fill-rule:evenodd;stroke:#fff01e;stroke-width:1.0877;stroke-linecap:round;stroke-linejoin:round;stroke-miterlimit:4;stroke-dasharray:none;stroke-opacity:1" /><path
         sodipodi:nodetypes="csc"
         inkscape:connector-curvature="0"
         id="path4421-9-4-48-7-3"
         d="m 403.90781,758.58315 c 0.81092,-0.5042 1.6206,-1.0375 2.4992,-1.4725 1.14615,-0.5674 2.87852,-1.5034 5.77531,-1.836"
         style="fill:none;fill-rule:evenodd;stroke:#fff01e;stroke-width:1.0877;stroke-linecap:round;stroke-linejoin:round;stroke-miterlimit:4;stroke-dasharray:none;stroke-opacity:1" /><path
         sodipodi:nodetypes="scccsccsccscsccsscccs"
         inkscape:connector-curvature="0"
         d="m 334.35351,607.51231 c 1.10819,9.1571 3.1251,14.14734 3.21698,14.25242 0,0 1.40153,11.84839 6.22398,22.69185 3.46565,7.79226 8.99152,15.5263 23.85573,24.33483 76.57911,42.55211 76.95655,79.84904 6.81195,104.88714 -16.95404,6.0517 -30.50663,4.0973 -59.16385,5.3663 145.88585,31.7561 220.85405,-30.004 318.7232,15.8125 -14.1063,-14.8976 -37.00714,-28.9571 -44.18203,-46.1407 -16.86481,-40.39069 -6.37908,-87.21752 -18.14927,-125.01963 3.26436,-16.27655 11.7402,-34.56102 13.5316,-50.67264 2.34163,-24.60226 -1.06221,-39.10814 -6.22521,-45.10962 -5.16301,-6.00148 -13.32976,-2.65822 -21.17344,1.86 -10.50142,6.07801 -25.38564,15.54786 -41.91084,28.6648 -0.62706,0.49769 -1.16173,0.70631 -2.05136,0.72107 -0.88967,0.0145 -1.52832,-0.18067 -2.39569,-0.66458 -10.78466,-6.01783 -23.54682,-15.66668 -43.02294,-15.58637 -32.01716,0.13201 -71.95924,22.12836 -89.54479,27.6743 -18.65661,5.88368 -21.42125,4.21668 -31.87916,6.94937 -0.65367,0.17084 -1.28233,0.41144 -1.88785,0.70472 -3.77902,1.83001 -5.90025,5.91867 -7.86071,10.70207 -2.75057,6.70938 -3.53048,13.49679 -2.9163,18.57217 z"
         style="fill:#ffd683;fill-opacity:1;stroke:none"
         id="path4171-4-5" /><path
         id="path5326-0-3-6"
         style="fill:#eec165;fill-opacity:0.42233;stroke:none"
         d="m 363.81824,666.2309 c 76.57908,42.55211 85.68858,81.45465 12.75067,107.25445 -16.97129,6.0032 -30.50663,4.0974 -59.16385,5.3664 103.6954,10.0592 126.53475,-34.0642 123.69354,-46.72415 -7.06793,-31.49347 -44.99342,-52.20713 -77.28036,-65.8967 z"
         inkscape:connector-curvature="0"
         sodipodi:nodetypes="cscsc" /><path
         sodipodi:nodetypes="cssssc"
         inkscape:connector-curvature="0"
         id="path4140-0-2"
         d="m 524.22518,568.90219 c 0,0 32.7123,-28.45636 35.68084,-27.75868 2.96858,0.69769 6.22123,9.41402 3.71445,29.30691 -2.50671,19.89285 -14.99564,29.96967 -14.46321,37.44421 0.53242,7.47458 -5.07415,-14.80707 -10.79862,-25.30918 -5.72448,-10.50208 -14.13346,-13.68326 -14.13346,-13.68326 z"
         style="fill:#eec165;fill-opacity:1;fill-rule:evenodd;stroke:none;stroke-width:1px;stroke-linecap:butt;stroke-linejoin:miter;stroke-opacity:1" /><path
         id="path5344-3-2-9"
         d="m 595.9309,754.61945 c 0.13056,2.3619 -2.67961,5.7692 -18.08064,7.6027 -17.90447,2.1314 -92.69722,-3.5883 -132.76634,0.598 -40.06909,4.1863 -55.84254,8.7464 -55.84254,8.7464 4.39168,-5.2797 9.0095,-9.4663 14.66643,-12.9834"
         style="fill:none;fill-rule:evenodd;stroke:#fff01e;stroke-width:1.0877;stroke-linecap:round;stroke-linejoin:round;stroke-miterlimit:4;stroke-dasharray:none;stroke-opacity:1"
         inkscape:connector-curvature="0" /><path
         sodipodi:nodetypes="ccsccsscc"
         inkscape:connector-curvature="0"
         id="path4419-7-7-5-4-1"
         d="m 402.82798,773.39245 c 0.0885,0.5622 -0.28131,1.2469 -1.26872,2.0579 -2.43441,2.0326 -8.40188,4.906 -14.7752,7.1053 -10.39828,3.5883 -18.25007,4.7844 -18.25007,4.7844 l -0.0748,-1.2709 c 0,0 7.85179,-1.1961 18.25006,-4.7844 6.10496,-2.1067 11.83752,-4.8318 14.44911,-6.8441 0.11483,-0.089 1.51314,-2.1005 1.61563,-2.1861 z"
         style="fill:#fff01e;fill-opacity:1;fill-rule:evenodd;stroke:none;stroke-width:1px;stroke-linecap:butt;stroke-linejoin:miter;stroke-opacity:1" /><path
         style="fill:#fff354;fill-opacity:1;fill-rule:evenodd;stroke:none;stroke-width:1px;stroke-linecap:butt;stroke-linejoin:miter;stroke-opacity:1"
         d="m 389.75742,771.11795 c 0,0 0.66897,-2.2217 -3.40964,-2.6202 -4.07861,-0.3984 -10.67582,1.0504 -11.73444,5.6105 -1.35516,5.8376 -6.15411,11.961 -6.15411,11.961 0,0 7.85179,-1.1961 18.25006,-4.7844 6.37333,-2.1993 12.3408,-5.0727 14.77521,-7.1053 3.07336,-2.5245 0.16319,-3.825 -3.92503,-4.0138 -4.08822,-0.1889 -7.80205,0.9523 -7.80205,0.9523 z"
         id="path5336-9-0-2"
         inkscape:connector-curvature="0"
         sodipodi:nodetypes="czscsczc" /><path
         sodipodi:nodetypes="cszcsc"
         inkscape:connector-curvature="0"
         id="path4224-0-7-0-6-7"
         d="m 336.74007,589.92131 c 0,0 2.32585,-7.04167 5.28602,-7.99316 2.9602,-0.95151 3.03529,0.95417 5.91972,2.04187 2.88446,1.08766 6.28729,1.30712 6.28729,1.30712 0,0 -8.00534,0.15934 -9.98687,-0.21896 -4.84725,-0.92548 -7.50616,4.86313 -7.50616,4.86313 z"
         style="fill:#ad7d14;fill-opacity:1;fill-rule:evenodd;stroke:none;stroke-width:1px;stroke-linecap:butt;stroke-linejoin:miter;stroke-opacity:1" /><path
         sodipodi:nodetypes="csscsccc"
         style="fill:#ad7d14;fill-opacity:1;fill-rule:evenodd;stroke:none;stroke-width:1px;stroke-linecap:butt;stroke-linejoin:miter;stroke-opacity:1"
         d="m 336.67462,619.88812 c 0,0 0.17969,2.64724 3.65234,7.27778 2.9208,3.89461 9.0681,9.77996 10.51423,10.85333 15.62055,11.59402 25.37295,23.25851 25.37295,23.25851 0,0 -8.24619,-9.40912 -22.41275,-18.81824 -7.08917,-4.70849 -14.69518,-14.06087 -14.69518,-14.06087 l -1.18538,-3.4451 z"
         id="path4242-6-4-4-2-0"
         inkscape:connector-curvature="0" /><path
         id="path4449-2-4-1-9-3"
         style="fill:#000000;fill-opacity:1;stroke:none"
         d="m 442.75313,570.09695 c 5.42398,2.08783 11.93026,0.50955 24.54424,-2.74879 -10.40882,3.50042 -18.09851,4.71629 -19.16536,5.34443 -20.95006,12.33536 -15.60475,1.88306 -43.78205,9.27331 4.69338,-6.99237 9.48867,-10.91406 14.16319,-12.95298 v 0 c 0.36572,-0.15957 0.73075,-0.30757 1.09513,-0.44444 l 2.34732,-0.73782 c 2.38971,-0.60817 4.73304,-0.78267 6.99973,-0.68485 l 3.36929,0.33501 c 2.11347,0.32113 4.14064,0.82085 6.05415,1.35186 z"
         inkscape:connector-curvature="0"
         sodipodi:nodetypes="ccsccccccccc" /><path
         sodipodi:nodetypes="ccccssc"
         inkscape:connector-curvature="0"
         d="m 404.34996,581.9659 c 4.69338,-6.99237 9.48867,-10.91406 14.16319,-12.95298 v 0 c 0.36572,-0.15957 0.73075,-0.30757 1.09513,-0.44444 0,0 -3.82909,1.53627 -9.07998,6.54986 -2.84959,2.72084 -4.25489,5.29803 -5.65672,6.44304 -0.3816,0.31167 -0.40843,0.34198 -0.52271,0.40379 z"
         style="fill:#333333;fill-opacity:1;stroke:none"
         id="path4456-2-0-75-9-6" /><path
         sodipodi:nodetypes="csssscc"
         inkscape:connector-curvature="0"
         d="m 404.34996,581.9659 c 0,0 0.15967,-0.25148 0.91058,-0.58576 0.6333,-0.28193 1.76809,-0.62815 2.76627,-0.8777 4.78438,-1.19611 10.1294,-1.86888 13.82981,-1.98102 3.88841,-0.11784 8.18576,0.71019 11.99831,0.11214 3.81256,-0.59805 7.99026,-2.52205 7.99026,-2.52205 -13.87644,6.74434 -12.56511,-0.68419 -37.49523,5.85439 z"
         style="fill:#000000;fill-opacity:1;stroke:none"
         id="path4453-3-7-9-0-0" /><path
         sodipodi:nodetypes="czczcccscscccccc"
         inkscape:connector-curvature="0"
         d="m 429.86642,567.49485 c -0.73677,-0.66121 -1.18167,-0.89122 -1.60671,-2.01383 -0.42503,-1.12261 -0.46118,-1.06903 0.0761,-2.90778 0.004,1.52996 -0.10286,1.22649 0.5697,2.588 0.67256,1.36147 1.75054,2.16241 2.86079,2.85375 z m -4.56698,0.16294 c -0.74997,-0.41565 -1.74583,-1.33537 -2.24247,-2.31136 -0.63619,-1.25023 -0.92088,-1.89821 -0.77303,-3.42639 0.35561,1.86805 0.23835,1.51223 1.43732,3.1966 0.84181,1.18258 2.61686,2.29776 4.07702,2.88044 z m -3.2131,1.5355 c -3.60923,-1.79376 -3.74374,-2.51649 -4.23012,-6.49032 1.46255,5.28762 2.7845,4.86407 6.3486,6.28652 z"
         style="fill:#000000;fill-opacity:1;fill-rule:evenodd;stroke:none;stroke-width:1px;stroke-linecap:butt;stroke-linejoin:miter;stroke-opacity:1"
         id="path4474-7-8-6-8-6" /><path
         sodipodi:nodetypes="ccccccc"
         inkscape:connector-curvature="0"
         d="m 445.41458,573.21146 c -16.7882,9.03735 -16.63604,3.05327 -31.99682,6.16427 -0.69507,-2.03621 -0.1571,-5.27812 1.92845,-7.58357 1.85435,-1.80061 3.57291,-2.32607 5.92425,-3.06516 2.20415,-0.56097 4.36555,-0.72191 6.45628,-0.63167 l 3.1077,0.30898 c 5.19408,0.72223 10.29421,2.73324 14.58014,4.80715 z"
         style="fill:#8ddbff;fill-opacity:1;stroke:none"
         id="path4724-6-2-1-2" /><path
         id="path4843-8-17-3-6"
         d="m 426.93965,568.07358 c -1.84448,-0.0221 -3.74074,0.16276 -5.66937,0.6536 -2.28695,0.71886 -3.97582,1.2387 -5.7727,2.92318 a 11.664225,11.410942 0 0 0 -1.04027,4.68645 11.664225,11.410942 0 0 0 0.36046,2.77236 c 11.35233,-2.01887 13.72572,1.1253 22.94501,-2.32412 a 11.664225,11.410942 0 0 0 0.0225,-0.44824 11.664225,11.410942 0 0 0 -2.46076,-7.00277 c -1.47721,-0.39799 -2.97946,-0.71969 -4.49031,-0.92976 l -3.10729,-0.30876 c -0.26134,-0.0112 -0.52395,-0.0189 -0.78742,-0.0221 z"
         style="fill:#000000;fill-opacity:1;stroke:none;stroke-width:1;stroke-linecap:butt;stroke-linejoin:round;stroke-miterlimit:4;stroke-dasharray:none;stroke-opacity:1"
         inkscape:connector-curvature="0" /><path
         inkscape:connector-curvature="0"
         id="path4988-85-1-1"
         d="m 346.41527,605.37419 a 0.54385053,0.72513447 0 0 1 -0.54384,0.72513 0.54385053,0.72513447 0 0 1 -0.54385,-0.72513 0.54385053,0.72513447 0 0 1 0.54385,-0.72514 0.54385053,0.72513447 0 0 1 0.54384,0.72514 z"
         style="fill:#ad7d14;fill-opacity:1;stroke:none;stroke-width:1;stroke-linecap:butt;stroke-linejoin:round;stroke-miterlimit:4;stroke-dasharray:none;stroke-opacity:1" /><path
         style="fill:#ad7d14;fill-opacity:1;stroke:none;stroke-width:1;stroke-linecap:butt;stroke-linejoin:round;stroke-miterlimit:4;stroke-dasharray:none;stroke-opacity:1"
         d="m 353.66659,598.12287 a 0.54385053,0.72513447 0 0 1 -0.54385,0.72513 0.54385053,0.72513447 0 0 1 -0.54385,-0.72513 0.54385053,0.72513447 0 0 1 0.54385,-0.72513 0.54385053,0.72513447 0 0 1 0.54385,0.72513 z"
         id="path5006-7-1-8"
         inkscape:connector-curvature="0" /><path
         inkscape:connector-curvature="0"
         id="path5008-41-0-7"
         d="m 354.39172,605.37419 a 0.54385053,0.72513447 0 0 1 -0.54385,0.72513 0.54385053,0.72513447 0 0 1 -0.54385,-0.72513 0.54385053,0.72513447 0 0 1 0.54385,-0.72514 0.54385053,0.72513447 0 0 1 0.54385,0.72514 z"
         style="fill:#ad7d14;fill-opacity:1;stroke:none;stroke-width:1;stroke-linecap:butt;stroke-linejoin:round;stroke-miterlimit:4;stroke-dasharray:none;stroke-opacity:1" /><path
         inkscape:connector-curvature="0"
         id="path5008-4-8-3-9"
         d="m 358.06483,615.24474 a 0.54385053,0.72513447 0 0 1 -0.54384,0.72514 0.54385053,0.72513447 0 0 1 -0.54385,-0.72514 0.54385053,0.72513447 0 0 1 0.54385,-0.72513 0.54385053,0.72513447 0 0 1 0.54384,0.72513 z"
         style="fill:#ad7d14;fill-opacity:1;stroke:none;stroke-width:1;stroke-linecap:butt;stroke-linejoin:round;stroke-miterlimit:4;stroke-dasharray:none;stroke-opacity:1" /><path
         id="path4249-6-2-44-0-0"
         d="m 506.79095,526.4604 c -2.90618,0.38283 -3.65009,0.95007 -4.52141,7.23572 -0.75504,5.44708 4.16654,20.08781 4.16654,20.08781 0,0 5.26782,-14.36329 5.1402,-19.86099 -0.13977,-6.02261 -1.27971,-6.9233 -4.16378,-7.4472 l -0.62155,-0.0152 z m -0.35487,27.32353 c -8e-5,1.8e-4 -0.005,0.0131 -0.005,0.0131 0,0 13.10889,-7.88729 16.45631,-12.2503 3.66703,-4.77955 3.34398,-6.19602 1.42565,-8.41239 l -0.47478,-0.40118 c -2.50406,-1.52382 -3.43923,-1.54873 -8.05889,2.80184 -3.99308,3.76053 -9.31624,18.17523 -9.3435,18.24909 z m -0.005,0.0131 c -1.8e-4,1.1e-4 -0.0123,0.007 -0.0123,0.007 0,0 15.09476,2.48883 20.47161,1.33536 5.8902,-1.26357 6.56222,-2.55163 6.53757,-5.48282 l -0.10149,-0.61336 c -0.91954,-2.78334 -1.61591,-3.40815 -7.95363,-3.08862 -5.4779,0.27617 -18.87198,7.80336 -18.94181,7.84262 z m -15.37633,-21.51512 c -0.91965,-0.0294 -1.74924,0.38066 -2.74466,1.03429 l -0.46079,0.41753 c -1.8411,2.28098 -1.98878,3.20498 1.71374,8.35859 1.79753,2.50203 6.8737,5.86454 10.99187,8.33919 -4.2009,-2.27597 -9.63007,-4.96863 -12.66097,-5.48145 -5.93981,-1.00495 -7.04041,-0.0565 -8.10182,2.67585 l -0.13281,0.60722 c -0.1753,2.92605 0.24038,3.76423 6.24672,5.81182 5.20372,1.774 20.50478,-0.28026 20.51247,-0.28131 1.8e-4,1.1e-4 0.012,0.007 0.012,0.007 0,0 -6.08705,-14.03575 -9.96983,-17.92996 -2.52553,-2.53295 -4.06175,-3.51521 -5.40586,-3.55825 z m 15.35081,21.48379 c 0,0 -15.09731,2.47328 -19.82215,5.28697 -5.17595,3.08235 -5.40013,4.51808 -4.43864,7.28717 l 0.29223,0.54867 c 1.76199,2.34261 2.62167,2.71159 8.52373,0.38041 3.31113,-1.30781 8.79483,-6.5702 12.25983,-10.12682 -3.33959,3.63602 -8.29735,9.34331 -9.68547,12.61605 -2.35228,5.54598 -1.6844,6.83599 0.72815,8.50093 l 0.56023,0.26975 c 2.80604,0.84767 3.7175,0.63721 7.09951,-4.73221 1.82943,-2.90444 3.11781,-9.98303 3.828,-14.8938 -0.54214,4.90388 -1.11521,12.03834 -0.33885,15.37637 1.36466,5.86762 2.6642,6.51727 5.59453,6.44222 l 0.61165,-0.11171 c 2.7671,-0.96729 3.37984,-1.67447 2.95139,-8.00578 -0.37032,-5.47216 -8.12629,-18.73423 -8.16722,-18.80417 -8e-5,-1.8e-4 -0.007,-0.012 -0.007,-0.012 3e-5,-1.8e-4 0,-0.0131 0,-0.0131 1.1e-4,-1.1e-4 0.009,-0.009 0.009,-0.009 z m -0.004,0.0341 c 0,0 8.11136,12.97155 12.53125,16.24345 4.84192,3.58429 6.25252,3.23673 8.43556,1.28055 l 0.39338,-0.48156 c 1.48054,-2.52991 1.48888,-3.46537 -2.94048,-8.00951 -3.83844,-3.93794 -18.41971,-9.03293 -18.41971,-9.03293 z"
         style="fill:#fff9a6;fill-opacity:1;fill-rule:evenodd;stroke:none;stroke-width:1px;stroke-linecap:butt;stroke-linejoin:miter;stroke-opacity:1"
         inkscape:connector-curvature="0" /><path
         d="m 496.3681,528.3721 c -2.54202,1.45965 -3.01437,2.26734 -1.42887,8.41185 1.37394,5.32478 11.49543,16.99233 11.49543,16.99233 0,0 -0.59265,-15.2874 -2.80216,-20.32318 -2.42049,-5.51655 -3.81742,-5.91606 -6.68397,-5.3034 m -14.46749,12.44924 c -1.02929,2.74462 -0.87875,3.66815 4.25811,7.39391 4.45155,3.22872 19.68645,5.77295 19.68645,5.77295 0,0 -10.1968,-11.40534 -15.10822,-13.87894 -5.38037,-2.70982 -6.7116,-2.12772 -8.53066,0.17088 m -3.47973,17.16403 c 0.78431,2.82439 1.4498,3.48216 7.79556,3.46849 5.49915,-0.012 19.31065,-6.92696 19.31065,-6.92696 0,0 -14.95761,-3.2135 -20.3838,-2.32053 -5.94427,0.9782 -6.67741,2.2326 -6.79408,5.16155 m 8.76281,17.36577 c 2.42774,1.64275 3.36084,1.7124 8.18481,-2.41044 4.18042,-3.57283 10.21764,-17.79001 10.21764,-17.79001 0,0 -13.47406,7.24613 -17.02789,11.44268 -3.89312,4.59726 -3.63857,6.02773 -1.82926,8.33397 m 15.08233,7.29895 c 2.93124,-0.0163 3.74049,-0.48609 5.39107,-6.61341 1.43043,-5.30988 -1.62151,-20.45128 -1.62151,-20.45128 0,0 -7.02282,13.59176 -7.58382,19.06225 -0.61455,5.99282 0.40376,7.02917 3.19964,7.9097 m 19.0484,-3.89838 c 2.22242,-1.91137 2.53459,-2.79346 -0.1774,-8.53051 -2.35019,-4.97169 -14.48399,-14.52924 -14.48399,-14.52924 0,0 3.45507,14.90366 6.57158,19.43446 3.41409,4.96341 4.8612,5.09325 7.56152,3.9528 m 12.13221,-15.79913 c 0.40056,-2.90378 0.0507,-3.77158 -5.77977,-6.27662 -5.05257,-2.17079 -20.47405,-1.3027 -20.47405,-1.3027 0,0 12.45519,8.88398 17.79034,10.21703 5.84456,1.46037 7.01517,0.59979 8.2843,-2.04252 m -2.74985,-22.43922 c -1.87287,-2.25498 -2.74944,-2.58223 -8.53229,0.0308 -5.01135,2.26433 -14.77611,14.232 -14.77611,14.232 0,0 14.96087,-3.1983 19.54457,-6.23645 5.02136,-3.32821 5.1761,-4.77289 4.08224,-7.49242 M 516.0375,528.20806 c -2.86372,-0.62576 -3.75614,-0.34455 -6.70808,5.27286 -2.55808,4.86795 -2.89479,20.31017 -2.89479,20.31017 0,0 9.82784,-11.72472 11.5728,-16.93972 1.91152,-5.71288 1.1448,-6.94705 -1.39051,-8.41827"
         style="fill:#fcfadf;fill-opacity:1;fill-rule:evenodd;stroke:none;stroke-width:1px;stroke-linecap:butt;stroke-linejoin:miter;stroke-opacity:1"
         id="path4299-1-5-7-3-2"
         inkscape:connector-curvature="0" /><path
         inkscape:connector-curvature="0"
         id="path4244-8-4-6-9-3"
         d="m 515.15458,553.7836 a 8.7185716,8.7185719 0 0 1 -8.71858,8.71858 8.7185716,8.7185719 0 0 1 -8.71858,-8.71858 8.7185716,8.7185719 0 0 1 8.71858,-8.71858 8.7185716,8.7185719 0 0 1 8.71858,8.71858 z"
         style="fill:#fff354;fill-opacity:1;stroke:none;stroke-width:6;stroke-linecap:butt;stroke-linejoin:round;stroke-miterlimit:4;stroke-dasharray:none;stroke-opacity:1" /></g></g></svg>
